<?xml version="1.0" encoding="UTF-8" standalone="no"?>
<!-- Created with Inkscape (http://www.inkscape.org/) -->

<svg
   xmlns:dc="http://purl.org/dc/elements/1.1/"
   xmlns:cc="http://creativecommons.org/ns#"
   xmlns:rdf="http://www.w3.org/1999/02/22-rdf-syntax-ns#"
   xmlns:svg="http://www.w3.org/2000/svg"
   xmlns="http://www.w3.org/2000/svg"
   xmlns:sodipodi="http://sodipodi.sourceforge.net/DTD/sodipodi-0.dtd"
   xmlns:inkscape="http://www.inkscape.org/namespaces/inkscape"
   version="1.1"
   id="svg112"
   width="317"
   height="355"
   viewBox="0 0 317 355"
   sodipodi:docname="img10.png.svg"
   inkscape:version="0.92.5 (2060ec1f9f, 2020-04-08)">
  <metadata
     id="metadata118">
    <rdf:RDF>
      <cc:Work
         rdf:about="">
        <dc:format>image/svg+xml</dc:format>
        <dc:type
           rdf:resource="http://purl.org/dc/dcmitype/StillImage" />
        <dc:title></dc:title>
      </cc:Work>
    </rdf:RDF>
  </metadata>
  <defs
     id="defs116" />
  <sodipodi:namedview
     pagecolor="#ffffff"
     bordercolor="#666666"
     borderopacity="1"
     objecttolerance="10"
     gridtolerance="10"
     guidetolerance="10"
     inkscape:pageopacity="0"
     inkscape:pageshadow="2"
     inkscape:window-width="1366"
     inkscape:window-height="654"
     id="namedview114"
     showgrid="false"
     inkscape:zoom="1.3408451"
     inkscape:cx="145.44853"
     inkscape:cy="177.5"
     inkscape:window-x="0"
     inkscape:window-y="27"
     inkscape:window-maximized="1"
     inkscape:current-layer="svg112" />
  <path
     style="fill:#000000"
     d="M 46.281981,193.04808 C 43.299316,190.2693 41.657314,184.51682 42.367601,179.33471 43.66725,169.85273 46.928386,168 62.318658,168 79.229184,168 82,169.97685 82,182.04174 c 0,6.52742 -0.240308,7.35241 -2.923077,10.03518 L 76.153846,195 H 62.265485 C 49.873401,195 48.1514,194.78971 46.281981,193.04808 Z m 28.170966,-3.2086 C 76.442203,188.93312 77,187.94763 77,185.33948 V 182 H 62 c -16.176849,0 -16.101938,-0.0285 -14.056787,5.35064 0.518768,1.36446 1.756268,2.69156 2.75,2.9491 3.827128,0.99186 21.316233,0.65308 23.759734,-0.46026 z M 77,178.2 c 0,-4.71455 -1.367022,-5.2 -14.643296,-5.2 -11.518257,0 -12.335483,0.13162 -13.8,2.22251 C 47.700517,176.44488 47,178.24488 47,179.22251 47,180.84683 48.292565,181 62,181 h 15 z m 17,14.9597 c 0,-2.95466 15.36856,-24.61367 17.71277,-24.96273 1.60679,-0.23926 3.95574,2.44006 11.16116,12.7309 5.01934,7.16866 9.12607,13.26752 9.12607,13.55303 0,0.2855 -1.2375,0.50974 -2.75,0.49829 -2.27518,-0.0172 -3.49883,-1.16046 -7.08697,-6.62129 l -4.33696,-6.60048 -4.66304,6.59982 -4.66303,6.59982 -7.25,0.0215 C 94.8686,194.99743 94,194.77952 94,193.1597 Z m 15.99341,-8.64959 C 113.88627,178.53513 114.65516,175 112.06186,175 111.15024,175 101,189.18119 101,190.45484 c 0,0.29984 1.07214,0.54516 2.38254,0.54516 1.83096,0 3.36144,-1.50247 6.61087,-6.48989 z M 146,193 c 0,-1.91358 0.66667,-2 15.42857,-2 12.69264,0 15.70723,-0.27866 17,-1.57143 C 179.29286,188.56429 180,187.69643 180,187.5 c 0,-0.19643 -0.70714,-1.06429 -1.57143,-1.92857 C 177.14994,184.2928 174.25344,184 162.88312,184 c -13.50329,0 -14.05671,-0.0827 -16.42857,-2.45455 -3.44105,-3.44104 -3.35856,-8.68919 0.18031,-11.47287 2.42182,-1.90501 3.95802,-2.07258 19,-2.07258 H 182 v 2.47523 2.47523 L 165.75,173.22523 149.5,173.5 v 2.5 2.5 L 164,179 c 14.55996,0.50207 18.15127,1.34587 19.38235,4.55401 1.20121,3.1303 0.59235,7.09603 -1.42131,9.25743 -1.9427,2.08525 -2.8396,2.18856 -19,2.18856 C 146.66667,195 146,194.92139 146,193 Z m 54,-11.5 c 0,-12.83333 0.0988,-13.5 2,-13.5 1.90123,0 2,0.66667 2,13.5 0,12.83333 -0.0988,13.5 -2,13.5 -1.90123,0 -2,-0.66667 -2,-13.5 z m 22,11.5 c 0,-1.91648 0.66667,-2 15.96482,-2 14.74993,0 16.04344,-0.14691 16.99801,-1.93055 0.77991,-1.45727 0.64844,-2.31532 -0.53624,-3.5 C 253.15041,184.29327 250.24595,184 238.88312,184 225.37983,184 224.82641,183.9173 222.45455,181.54545 220.90731,179.99822 220,177.94837 220,176 c 0,-1.94837 0.90731,-3.99822 2.45455,-5.54545 2.40825,-2.40826 2.76655,-2.45455 19,-2.45455 H 258 v 2.47523 2.47523 L 241.75,173.22523 225.5,173.5 v 2.5 2.5 l 15,0.5 c 8.25,0.275 15.60694,0.89152 16.34875,1.37005 0.74181,0.47852 1.92769,2.24695 2.63529,3.92983 1.52027,3.61566 0.33207,8.19298 -2.52348,9.72123 C 255.95457,194.5595 247.6769,195 238.56574,195 222.66667,195 222,194.91951 222,193 Z m -76.17304,-49.1772 c -7.20805,-0.92962 -11.90137,-2.90181 -18.03253,-7.57749 C 118.04784,128.81246 112.89299,118.1401 112.94415,105.5 113.00707,89.956631 120.96526,77.37311 135,70.625201 140.94548,67.766613 142.35311,67.5 151.5,67.5 c 9.12569,0 10.5683,0.271603 16.5,3.106488 11.67343,5.578981 20.1729,16.897299 21.75917,28.975607 1.73325,13.197505 -1.80138,24.125715 -10.74051,33.206965 -8.65821,8.79586 -20.36609,12.68785 -33.1917,11.03374 z m 21.5356,-6.68052 c 8.55576,-4.21199 15.34668,-12.06488 18.08207,-20.90978 0.60848,-1.96751 -0.15686,-1.66763 -5.7849,2.26665 -12.33167,8.62045 -22.64998,11.95687 -40.38322,13.05788 l -11.22348,0.69684 2.57621,2.02645 c 1.41692,1.11455 5.11749,3.09889 8.22349,4.40964 4.74732,2.00341 6.94678,2.32705 13.8018,2.03089 6.73052,-0.29078 9.29896,-0.9157 14.70803,-3.57857 z m -13.89125,-10.65372 c 8.73868,-1.85109 19.17376,-6.797 27.27869,-12.92927 6.12532,-4.63448 6.25,-4.82355 6.25,-9.47739 0,-2.61171 -0.29164,-5.040208 -0.64809,-5.396659 -0.35645,-0.35645 -3.65208,2.185709 -7.32361,5.649249 -7.19672,6.78902 -11.86896,9.73703 -22.0283,13.89903 -7.97492,3.2671 -13.62842,4.41464 -26.27907,5.33405 -9.45319,0.68703 -9.72294,0.77272 -8.09501,2.57157 1.45138,1.60376 3.21695,1.85846 12.77907,1.8435 6.10225,-0.01 14.2321,-0.68189 18.06632,-1.49408 z m -1.57716,-9.87515 c 9.16692,-3.21384 14.74042,-6.39294 23.15435,-13.20717 10.34322,-8.376694 10.34568,-8.380616 8.36645,-13.327187 l -1.66884,-4.170864 -7.12306,6.860812 C 158.78894,108.02017 143.1097,114.93739 124.27144,114.98264 l -7.22856,0.0174 1.19597,2.62488 1.19598,2.62487 12.53258,-0.52201 c 9.98574,-0.41593 14.03522,-1.04882 19.92674,-3.11433 z m -8.37218,-8.02225 c 9.52051,-3.00758 19.88292,-9.600732 29.02856,-18.469623 l 6.5775,-6.378464 -2.70824,-2.826793 -2.70824,-2.826793 -8.23857,7.705256 c -4.53122,4.237892 -11.10382,9.404272 -14.60578,11.480845 -7.67937,4.553672 -19.40152,8.416092 -28.31312,9.329122 C 116.39885,107.23533 116,107.42912 116,109.78916 v 2.51296 l 9.77197,-0.59533 c 6.19121,-0.37719 12.69539,-1.51886 17.75,-3.11563 z m -11.4679,-7.04959 c 12.68644,-3.669929 23.24355,-10.069074 32.90141,-19.943038 5.23564,-5.352793 5.37668,-5.635616 3.5,-7.018576 -2.72811,-2.010392 -12.31124,-4.582295 -17.02108,-4.568087 -10.80885,0.03261 -22.11983,5.909579 -28.48709,14.801367 C 119.17251,90.084679 116,98.068567 116,102.29672 c 0,1.76694 0.49595,1.87458 5.75,1.24799 3.1625,-0.37716 7.79933,-1.27857 10.30407,-2.00314 z"
     id="path124"
     inkscape:connector-curvature="0"
     inkscape:highlight-color="4278190217" />
  <path
     style="fill:#000000"
     d="M 46.281981,193.04808 C 43.299316,190.2693 41.657314,184.51682 42.367601,179.33471 43.66725,169.85273 46.928386,168 62.318658,168 79.229184,168 82,169.97685 82,182.04174 c 0,6.52742 -0.240308,7.35241 -2.923077,10.03518 L 76.153846,195 H 62.265485 C 49.873401,195 48.1514,194.78971 46.281981,193.04808 Z m 28.170966,-3.2086 C 76.442203,188.93312 77,187.94763 77,185.33948 V 182 H 62 c -16.176849,0 -16.101938,-0.0285 -14.056787,5.35064 0.518768,1.36446 1.756268,2.69156 2.75,2.9491 3.827128,0.99186 21.316233,0.65308 23.759734,-0.46026 z M 77,178.2 c 0,-4.71455 -1.367022,-5.2 -14.643296,-5.2 -11.518257,0 -12.335483,0.13162 -13.8,2.22251 C 47.700517,176.44488 47,178.24488 47,179.22251 47,180.84683 48.292565,181 62,181 h 15 z m 17,14.9597 c 0,-2.95466 15.36856,-24.61367 17.71277,-24.96273 1.60679,-0.23926 3.95574,2.44006 11.16116,12.7309 5.01934,7.16866 9.12607,13.26752 9.12607,13.55303 0,0.2855 -1.2375,0.50974 -2.75,0.49829 -2.27518,-0.0172 -3.49883,-1.16046 -7.08697,-6.62129 l -4.33696,-6.60048 -4.66304,6.59982 -4.66303,6.59982 -7.25,0.0215 C 94.8686,194.99743 94,194.77952 94,193.1597 Z m 15.99341,-8.64959 C 113.88627,178.53513 114.65516,175 112.06186,175 111.15024,175 101,189.18119 101,190.45484 c 0,0.29984 1.07214,0.54516 2.38254,0.54516 1.83096,0 3.36144,-1.50247 6.61087,-6.48989 z M 146,193 c 0,-1.91358 0.66667,-2 15.42857,-2 12.69264,0 15.70723,-0.27866 17,-1.57143 C 179.29286,188.56429 180,187.69643 180,187.5 c 0,-0.19643 -0.70714,-1.06429 -1.57143,-1.92857 C 177.14994,184.2928 174.25344,184 162.88312,184 c -13.50329,0 -14.05671,-0.0827 -16.42857,-2.45455 -3.44105,-3.44104 -3.35856,-8.68919 0.18031,-11.47287 2.42182,-1.90501 3.95802,-2.07258 19,-2.07258 H 182 v 2.47523 2.47523 L 165.75,173.22523 149.5,173.5 v 2.5 2.5 L 164,179 c 14.55996,0.50207 18.15127,1.34587 19.38235,4.55401 1.20121,3.1303 0.59235,7.09603 -1.42131,9.25743 -1.9427,2.08525 -2.8396,2.18856 -19,2.18856 C 146.66667,195 146,194.92139 146,193 Z m 54,-11.5 c 0,-12.83333 0.0988,-13.5 2,-13.5 1.90123,0 2,0.66667 2,13.5 0,12.83333 -0.0988,13.5 -2,13.5 -1.90123,0 -2,-0.66667 -2,-13.5 z m 22,11.5 c 0,-1.91648 0.66667,-2 15.96482,-2 14.74993,0 16.04344,-0.14691 16.99801,-1.93055 0.77991,-1.45727 0.64844,-2.31532 -0.53624,-3.5 C 253.15041,184.29327 250.24595,184 238.88312,184 225.37983,184 224.82641,183.9173 222.45455,181.54545 220.90731,179.99822 220,177.94837 220,176 c 0,-1.94837 0.90731,-3.99822 2.45455,-5.54545 2.40825,-2.40826 2.76655,-2.45455 19,-2.45455 H 258 v 2.47523 2.47523 L 241.75,173.22523 225.5,173.5 v 2.5 2.5 l 15,0.5 c 8.25,0.275 15.60694,0.89152 16.34875,1.37005 0.74181,0.47852 1.92769,2.24695 2.63529,3.92983 1.52027,3.61566 0.33207,8.19298 -2.52348,9.72123 C 255.95457,194.5595 247.6769,195 238.56574,195 222.66667,195 222,194.91951 222,193 Z m -76.17304,-49.1772 c -7.20805,-0.92962 -11.90137,-2.90181 -18.03253,-7.57749 C 118.04784,128.81246 112.89299,118.1401 112.94415,105.5 113.00707,89.956631 120.96526,77.37311 135,70.625201 140.94548,67.766613 142.35311,67.5 151.5,67.5 c 9.12569,0 10.5683,0.271603 16.5,3.106488 11.67343,5.578981 20.1729,16.897299 21.75917,28.975607 1.73325,13.197505 -1.80138,24.125715 -10.74051,33.206965 -8.65821,8.79586 -20.36609,12.68785 -33.1917,11.03374 z m 21.5356,-6.68052 c 8.55576,-4.21199 15.34668,-12.06488 18.08207,-20.90978 0.60848,-1.96751 -0.15686,-1.66763 -5.7849,2.26665 -12.33167,8.62045 -22.64998,11.95687 -40.38322,13.05788 l -11.22348,0.69684 2.57621,2.02645 c 1.41692,1.11455 5.11749,3.09889 8.22349,4.40964 4.74732,2.00341 6.94678,2.32705 13.8018,2.03089 6.73052,-0.29078 9.29896,-0.9157 14.70803,-3.57857 z m -13.89125,-10.65372 c 8.73868,-1.85109 19.17376,-6.797 27.27869,-12.92927 6.12532,-4.63448 6.25,-4.82355 6.25,-9.47739 0,-2.61171 -0.29164,-5.040208 -0.64809,-5.396659 -0.35645,-0.35645 -3.65208,2.185709 -7.32361,5.649249 -7.19672,6.78902 -11.86896,9.73703 -22.0283,13.89903 -7.97492,3.2671 -13.62842,4.41464 -26.27907,5.33405 -9.45319,0.68703 -9.72294,0.77272 -8.09501,2.57157 1.45138,1.60376 3.21695,1.85846 12.77907,1.8435 6.10225,-0.01 14.2321,-0.68189 18.06632,-1.49408 z m -1.57716,-9.87515 c 9.16692,-3.21384 14.74042,-6.39294 23.15435,-13.20717 10.34322,-8.376694 10.34568,-8.380616 8.36645,-13.327187 l -1.66884,-4.170864 -7.12306,6.860812 C 158.78894,108.02017 143.1097,114.93739 124.27144,114.98264 l -7.22856,0.0174 1.19597,2.62488 1.19598,2.62487 12.53258,-0.52201 c 9.98574,-0.41593 14.03522,-1.04882 19.92674,-3.11433 z m -8.37218,-8.02225 c 9.52051,-3.00758 19.88292,-9.600732 29.02856,-18.469623 l 6.5775,-6.378464 -2.70824,-2.826793 -2.70824,-2.826793 -8.23857,7.705256 c -4.53122,4.237892 -11.10382,9.404272 -14.60578,11.480845 -7.67937,4.553672 -19.40152,8.416092 -28.31312,9.329122 C 116.39885,107.23533 116,107.42912 116,109.78916 v 2.51296 l 9.77197,-0.59533 c 6.19121,-0.37719 12.69539,-1.51886 17.75,-3.11563 z m -11.4679,-7.04959 c 12.68644,-3.669929 23.24355,-10.069074 32.90141,-19.943038 5.23564,-5.352793 5.37668,-5.635616 3.5,-7.018576 -2.72811,-2.010392 -12.31124,-4.582295 -17.02108,-4.568087 -10.80885,0.03261 -22.11983,5.909579 -28.48709,14.801367 C 119.17251,90.084679 116,98.068567 116,102.29672 c 0,1.76694 0.49595,1.87458 5.75,1.24799 3.1625,-0.37716 7.79933,-1.27857 10.30407,-2.00314 z"
     id="path122"
     inkscape:connector-curvature="0" />
  <ellipse
     id="path4642"
     cx="-27.967438"
     cy="20.882353"
     rx="0.37289914"
     ry="13.42437" />
</svg>
