<?xml version="1.0" encoding="utf-8"?>

<svg
  xmlns="http://www.w3.org/2000/svg"
  viewBox="0 0 1200 400"
  height={400}
  width={1200}
>
  
  <path
 
    d="m -51.723493,566.34096 c -13.467321,-13.94528 -14.660842,-18.20113 -14.660842,-52.27697 0,-20.40268 2.43868,-41.8143 5.41927,-47.58119 9.166804,-17.73627 35.372868,-25.18906 88.461223,-25.1577 86.893102,0.0491 101.725992,10.54229 101.725992,71.94883 0,32.54593 -1.39189,37.53127 -14.55116,52.11827 l -14.55117,16.12992 H 31.528572 -37.06265 Z M 95.594882,554.25592 c 4.627918,-3.57052 9.855428,-14.08749 11.616678,-23.371 l 3.20227,-16.879 H 32.04585 -46.322127 v 12.98385 c 0,7.14114 4.513985,17.6581 10.031097,23.371 8.848428,9.16245 16.718509,10.38714 66.751313,10.38714 37.544811,0 59.56487,-2.19479 65.134599,-6.49199 z m 11.197788,-59.69684 c -6.32092,-26.07841 -9.695749,-27.29517 -75.70349,-27.29517 -58.172355,0 -62.253674,0.67684 -69.603582,11.54272 -4.294253,6.34846 -7.807725,15.69687 -7.807725,20.7742 0,8.45198 6.610254,9.23153 78.284761,9.23153 H 110.2474 Z m 82.61609,77.68234 c 0,-15.06723 79.56012,-130.94528 89.90499,-130.94528 5.86923,0 23.81008,22.17872 51.46434,63.62105 54.93356,82.32257 52.15464,76.60493 37.23218,76.60493 -9.76423,0 -17.82757,-7.61264 -36.00987,-33.99723 -13.99416,-18.70653 -15.97309,-20.96782 -15.97309,-27.26807 z"
  />
</svg>