<?xml version="1.0" encoding="UTF-8" standalone="no"?>
<svg
   xmlns:dc="http://purl.org/dc/elements/1.1/"
   xmlns:cc="http://creativecommons.org/ns#"
   xmlns:rdf="http://www.w3.org/1999/02/22-rdf-syntax-ns#"
   xmlns:svg="http://www.w3.org/2000/svg"
   xmlns="http://www.w3.org/2000/svg"
   viewBox="0 0 400 400"
   height="400"
   width="400"
   id="svg339"
   version="1.1">
  <metadata
     id="metadata345">
    <rdf:RDF>
      <cc:Work
         rdf:about="">
        <dc:format>image/svg+xml</dc:format>
        <dc:type
           rdf:resource="http://purl.org/dc/dcmitype/StillImage" />
        <dc:title></dc:title>
      </cc:Work>
    </rdf:RDF>
  </metadata>
  <defs
     id="defs343" />
  <g
     transform="translate(123.74369,-314.64466)"
     id="g377">
    <path
       style="fill:#000000;stroke-width:4.25257397"
       d="M 29.515841,673.05855 C -24.607958,655.00987 -65.629839,612.46727 -80.620846,558.83916 -83.81448,547.41454 -85.49728,525.0219 -84.614048,505.70232 -78.043132,361.96818 101.10918,297.99993 199.04593,404.41851 c 26.98778,29.325 40.24261,61.15146 42.22029,101.37619 3.94366,80.21055 -39.93118,143.5293 -116.14379,167.61505 -20.83114,6.58337 -75.41284,6.38285 -95.606589,-0.35124 z M 144.85079,651.91336 c 34.89395,-16.72588 66.12054,-53.5075 77.98071,-91.85298 3.03629,-9.81676 2.17736,-9.58157 -17.51383,4.79549 -24.31552,17.75347 -57.91867,35.1891 -90.72271,47.07313 -17.172793,6.22129 -39.419743,9.20924 -82.954525,11.14152 l -59.488568,2.64039 20.8052305,14.46476 C 22.843621,660.9541 42.743827,666.27792 84.755247,664.73401 113.4228,663.68047 125.81933,661.03583 144.85079,651.91336 Z M 82.912517,606.22873 c 32.139203,-5.84621 95.159203,-35.66689 124.006693,-58.67925 21.35713,-17.03704 22.3082,-18.66861 22.3082,-38.26731 0,-11.25934 -1.21448,-21.688 -2.69887,-23.17476 -1.48445,-1.48676 -16.13349,9.75494 -32.55351,24.98159 -35.81371,33.21099 -92.23285,62.63583 -138.179623,72.06626 -17.096377,3.50895 -49.2138795,6.37994 -71.372173,6.37994 h -40.287815 l 7.634417,10.5062 c 7.345995,10.1092 9.491502,10.51118 56.7819705,10.63989 27.0311515,0.0735 60.4934405,-1.93008 74.3607105,-4.45256 z m -21.99303,-37.8542 c 43.281923,-11.08734 84.549823,-33.31579 123.242993,-66.38332 17.37159,-14.84593 32.92117,-29.15839 34.55453,-31.80553 1.63341,-2.64712 -0.37265,-12.23741 -4.45826,-21.31176 l -7.42805,-16.49886 -35.04471,32.8284 c -61.75553,57.85019 -120.49188,84.44626 -198.014834,89.66204 -40.15173,2.70148 -40.809765,2.91883 -37.317271,12.32584 3.373445,9.08625 5.809062,9.57591 47.628874,9.57591 29.956151,0 54.568185,-2.6883 76.836728,-8.39272 z M 15.69057,535.98386 c 56.721277,-11.73479 95.02088,-32.9885 151.95829,-84.32638 l 32.55187,-29.35055 -13.08057,-13.10149 -13.08052,-13.10145 -24.45863,23.7929 C 113.908,454.59894 84.231737,476.501 52.606709,491.46692 c -29.801562,14.10303 -88.476446,29.89376 -111.261461,29.94293 -11.889746,0.0252 -13.809845,1.5092 -13.809845,10.66979 0,10.26501 0.979548,10.63988 27.798833,10.63988 15.289367,0 42.4497705,-3.03104 60.356334,-6.73566 z M 14.541609,492.5764 C 55.414873,479.06444 98.596727,450.83782 134.97817,413.85071 l 26.85251,-27.29946 -22.60333,-10.11989 c -18.29763,-8.19215 -29.90013,-10.14034 -60.909583,-10.22716 -34.83943,-0.0978 -40.880238,1.16068 -66.746257,13.90331 -43.346714,21.35429 -76.882781,66.79127 -82.997185,112.45025 l -2.324623,17.35923 27.20025,-3.0684 c 14.960167,-1.68759 42.4514075,-8.11012 61.091657,-14.27219 z"
       id="path349" />
  </g>
</svg>
