<?xml version="1.0" encoding="UTF-8" standalone="no"?>
<svg
   xmlns:dc="http://purl.org/dc/elements/1.1/"
   xmlns:cc="http://creativecommons.org/ns#"
   xmlns:rdf="http://www.w3.org/1999/02/22-rdf-syntax-ns#"
   xmlns:svg="http://www.w3.org/2000/svg"
   xmlns="http://www.w3.org/2000/svg"
   viewBox="0 0 1000 750"
   height="750"
   width="1000"
   id="svg339"
   version="1.1">
  <metadata
     id="metadata345">
    <rdf:RDF>
      <cc:Work
         rdf:about="">
        <dc:format>image/svg+xml</dc:format>
        <dc:type
           rdf:resource="http://purl.org/dc/dcmitype/StillImage" />
        <dc:title></dc:title>
      </cc:Work>
    </rdf:RDF>
  </metadata>
  <defs
     id="defs343" />
  <path
     id="path349"
     d="M 36.452762,637.92939 C 24.6565,626.25392 23.611075,622.69079 23.611075,594.1613 c 0,-17.08181 2.136071,-35.00836 4.746822,-39.8366 8.029368,-14.8494 30.983727,-21.08914 77.484723,-21.06289 76.11119,0.0412 89.10357,8.82637 89.10357,60.23804 0,27.24857 -1.21918,31.42247 -12.74561,43.6352 l -12.74562,13.50453 H 109.3747 49.294445 Z M 165.49149,627.81138 c 4.05367,-2.98936 8.63253,-11.79452 10.17524,-19.567 l 2.80494,-14.13169 H 109.82778 41.183909 v 10.87053 c 0,5.97881 3.953886,14.78397 8.786417,19.56701 7.750484,7.67111 14.644026,8.69647 58.468634,8.69647 32.88615,0 52.1739,-1.83756 57.05253,-5.43532 z m 9.80834,-49.98024 c -5.53661,-21.83375 -8.49269,-22.85246 -66.31001,-22.85246 -50.954186,0 -54.529076,0.56667 -60.966989,9.66396 -3.761407,5.31515 -6.838922,13.14195 -6.838922,17.39288 0,7.07629 5.790038,7.72894 68.570981,7.72894 h 68.57099 z m 72.36486,65.03832 c 0,-12.6148 69.68808,-109.6319 78.74934,-109.6319 5.14096,0 20.85566,18.56879 45.07851,53.26574 48.11725,68.92328 45.68314,64.13628 32.61231,64.13628 -8.55266,0 -15.61547,-6.37356 -31.54168,-28.46365 -11.28674,-15.65501 -21.08456,-27.88437 -21.77301,-27.17639 -0.68834,0.708 -10.3305,13.51663 -21.42698,28.46365 l -20.17536,27.17639 h -30.76159 c -26.61027,0 -30.76154,-1.04857 -30.76154,-7.77012 z m 71.23446,-38.63397 c 16.84222,-24.24408 19.32971,-30.31721 15.13838,-36.95989 -2.75848,-4.37176 -6.02256,-7.87036 -7.25354,-7.77456 -1.23098,0.0958 -13.68836,16.72769 -27.68308,36.9599 l -25.4449,36.78576 h 12.54469 c 10.53021,0 15.78108,-4.65881 32.69845,-29.01121 z m 157.21241,37.70762 c 0,-8.33127 2.92878,-8.69641 69.75338,-8.69641 75.80435,0 85.48731,-2.75735 75.3727,-21.46319 -4.55587,-8.42562 -8.69944,-8.9744 -67.75807,-8.9744 -60.68341,0 -63.31599,-0.37637 -74.52995,-10.66294 -6.51533,-5.97639 -11.62452,-15.37565 -11.62452,-21.38545 0,-32.44432 13.34976,-37.52316 98.62896,-37.52316 H 634.267 v 10.87054 10.87058 h -70.13679 c -63.09869,0 -70.56231,0.78707 -74.37795,7.84365 -9.41208,17.40654 -0.24087,20.29723 71.68332,22.59389 61.50445,1.96396 68.72695,3.01479 74.71242,10.87059 10.05473,13.19664 8.54926,33.91544 -3.26248,44.89837 -9.6009,8.92723 -14.25534,9.4544 -83.47092,9.4544 -70.37426,0 -73.30304,-0.34753 -73.30304,-8.69647 z m 237.23316,-50.00454 c 0,-55.80216 0.43428,-58.70101 8.7864,-58.70101 8.35254,0 8.78646,2.89885 8.78646,58.70101 0,55.80217 -0.43428,58.70101 -8.78646,58.70101 -8.35248,0 -8.7864,-2.89884 -8.7864,-58.70101 z m 96.65058,50.00454 c 0,-8.33127 2.92883,-8.69641 69.75342,-8.69641 58.28426,0 70.7029,-1.13239 75.52811,-6.88682 4.18679,-4.99321 4.50692,-8.87895 1.16419,-14.13175 -3.89564,-6.12163 -14.50384,-7.43098 -68.42033,-8.44525 -60.62228,-1.14043 -64.38428,-1.72733 -75.31076,-11.74998 -6.41506,-5.88439 -11.50104,-15.29136 -11.50104,-21.27218 0,-32.44432 13.34976,-37.52316 98.62901,-37.52316 h 68.31289 v 10.87054 10.87058 h -70.13675 c -63.09874,0 -70.56235,0.78707 -74.37799,7.84365 -9.41208,17.40654 -0.24087,20.29723 71.68337,22.59389 61.5044,1.96396 68.72694,3.01479 74.71237,10.87059 9.45777,12.41306 8.48622,33.64072 -2.05214,44.83643 -8.5347,9.06713 -12.47496,9.51634 -83.47097,9.51634 -71.58455,0 -74.51338,-0.34187 -74.51338,-8.69647 z M 449.7523,422.9014 C 393.794,404.46149 351.38169,360.9967 335.88258,306.20613 c -3.30189,-11.67227 -5.04172,-34.55031 -4.12856,-54.28867 6.79364,-146.84981 192.01824,-212.204672 293.27451,-103.4793 27.90253,29.96066 41.60662,62.47701 43.65133,103.57368 4.07734,81.94924 -41.28463,146.64053 -120.08043,171.24837 -21.5372,6.72608 -77.96893,6.52121 -98.84713,-0.35886 z m 119.24417,-21.60355 c 36.07667,-17.08844 68.36168,-54.66736 80.62383,-93.84404 3.13922,-10.02955 2.25117,-9.78926 -18.10744,4.89945 -25.13968,18.1383 -59.8818,35.95188 -93.79772,48.09351 -17.75486,6.35615 -40.75586,9.40889 -85.76624,11.38303 l -61.50491,2.69763 21.51042,14.7783 c 30.89951,21.22883 51.47423,26.66806 94.90961,25.09068 29.63923,-1.07638 42.45594,-3.77834 62.13245,-13.09856 z m -64.03764,-46.67491 c 33.22855,-5.97294 98.38458,-36.44003 128.20985,-59.95121 22.08102,-17.40636 23.06433,-19.0733 23.06433,-39.09683 0,-11.5034 -1.25564,-22.15811 -2.79036,-23.6771 -1.53476,-1.519 -16.68032,9.96638 -33.65689,25.5231 -37.02759,33.93089 -95.35905,63.99356 -142.86316,73.62841 -17.67585,3.58501 -50.88197,6.51824 -73.79131,6.51824 h -41.65335 l 7.89319,10.73393 c 7.59498,10.32834 9.8132,10.73904 58.70657,10.87054 27.94736,0.0751 62.54383,-1.97193 76.88113,-4.54908 z m -22.73848,-38.67475 c 44.74894,-11.32768 87.41562,-34.03797 127.42027,-67.82229 17.9604,-15.16774 34.03702,-29.79045 35.72574,-32.49497 1.68878,-2.70449 -0.38528,-12.50267 -4.60936,-21.77372 l -7.67982,-16.8565 -36.23254,33.54001 c -63.84871,59.10419 -124.57591,86.27677 -204.72647,91.60561 -41.51265,2.76003 -42.193,2.9821 -38.58212,12.59301 3.48778,9.28321 6.00596,9.7835 49.24323,9.7835 30.9715,0 56.41775,-2.74659 79.44107,-8.57465 z M 435.45843,282.8554 c 58.64381,-11.98917 98.24162,-33.70353 157.10885,-86.15429 l 33.6552,-29.98677 -13.52393,-13.38549 -13.52388,-13.38544 -25.28764,24.30865 c -36.88215,35.45426 -67.56426,57.83108 -100.26121,73.12142 -30.81167,14.40874 -91.47532,30.54175 -115.03262,30.59199 -12.29274,0.0257 -14.27793,1.54192 -14.27793,10.90107 0,10.48753 1.01276,10.87053 28.74107,10.87053 15.80759,0 43.88858,-3.09675 62.40209,-6.88167 z m -1.18791,-44.34839 c 42.25865,-13.80486 86.90413,-42.64333 124.51871,-80.43219 l 27.76266,-27.89123 -23.36946,-10.33924 c -18.91782,-8.36974 -30.91358,-10.36016 -62.97408,-10.44886 -36.0203,-0.0999 -42.26587,1.18584 -69.0086,14.20469 -44.81593,21.81717 -79.48869,68.23908 -85.81034,114.88778 l -2.40342,17.73552 28.1222,-3.13491 c 15.46723,-1.72417 43.89028,-8.28591 63.16233,-14.58156 z"
     style="fill:#000000;stroke-width:4.37065697" />
</svg>
