<?xml version="1.0" encoding="UTF-8" standalone="no"?>
<svg
   xmlns:dc="http://purl.org/dc/elements/1.1/"
   xmlns:cc="http://creativecommons.org/ns#"
   xmlns:rdf="http://www.w3.org/1999/02/22-rdf-syntax-ns#"
   xmlns:svg="http://www.w3.org/2000/svg"
   xmlns="http://www.w3.org/2000/svg"
   viewBox="0 0 1200 400"
   height="400"
   width="1200"
   id="svg339"
   version="1.1">
  <metadata
     id="metadata345">
    <rdf:RDF>
      <cc:Work
         rdf:about="">
        <dc:format>image/svg+xml</dc:format>
        <dc:type
           rdf:resource="http://purl.org/dc/dcmitype/StillImage" />
        <dc:title></dc:title>
      </cc:Work>
    </rdf:RDF>
  </metadata>
  <defs
     id="defs343" />
  <g
     transform="translate(123.74369,35.355339)"
     id="g381">
    <g
       id="g377"
       transform="translate(0,-350)">
      <path
         id="path349"
         d="m 298.26103,551.2193 c -8.71276,-8.67442 -9.48491,-11.32169 -9.48491,-32.51798 0,-12.69112 1.57771,-26.00985 3.50602,-29.59704 5.93051,-11.03253 22.88467,-15.66841 57.23046,-15.64891 56.21596,0.0306 65.81218,6.55765 65.81218,44.75451 0,20.24463 -0.90049,23.34567 -9.41395,32.41926 l -9.41396,10.03333 H 352.1214 307.74594 Z m 95.30841,-7.51729 c 2.99406,-2.22098 6.37602,-8.76287 7.51547,-14.53752 l 2.07173,-10.49929 h -50.70059 -50.70058 v 8.07638 c 0,4.44202 2.92035,10.98391 6.48967,14.53752 5.72454,5.69934 10.81613,6.46114 43.18512,6.46114 24.28982,0 38.53581,-1.36523 42.13918,-4.03823 z m 7.24447,-37.13337 c -4.08935,-16.22162 -6.27272,-16.97848 -48.97678,-16.97848 -37.63492,0 -40.27535,0.42101 -45.03041,7.17994 -2.77819,3.94895 -5.05125,9.76396 -5.05125,12.92223 0,5.25741 4.27654,5.74231 50.64674,5.74231 h 50.64675 z m 53.44892,48.32094 c 0,-9.37231 51.47184,-81.45222 58.16451,-81.45222 3.79713,0 15.40406,13.79588 33.29513,39.57436 35.53956,51.20731 33.74172,47.65075 24.08756,47.65075 -6.31702,0 -11.53364,-4.7353 -23.29678,-21.14738 -8.33643,-11.63106 -15.57313,-20.717 -16.08162,-20.19099 -0.50841,0.52601 -7.63014,10.04232 -15.82604,21.14738 l -14.90158,20.19099 H 476.9834 c -19.65443,0 -22.72057,-0.77904 -22.72057,-5.77289 z m 52.614,-28.70353 c 12.43972,-18.01241 14.27698,-22.52451 11.18125,-27.45976 -2.03742,-3.24805 -4.44828,-5.84737 -5.35748,-5.77619 -0.90921,0.0712 -10.11027,12.42802 -20.44681,27.45976 l -18.79369,27.33038 h 9.26555 c 7.77765,0 11.65596,-3.46131 24.15118,-21.55419 z m 116.11759,28.01529 c 0,-6.18981 2.1632,-6.4611 51.52007,-6.4611 55.98933,0 63.1412,-2.0486 55.67051,-15.94631 -3.36498,-6.25991 -6.42543,-6.66763 -50.04632,-6.66763 -44.82096,0 -46.7654,-0.27963 -55.04806,-7.92215 -4.81225,-4.44022 -8.58591,-11.4235 -8.58591,-15.88855 0,-24.10487 9.86017,-27.87824 72.84766,-27.87824 h 50.45616 v 8.07638 8.07642 h -51.80326 c -46.60489,0 -52.11755,0.58476 -54.93579,5.82752 -6.95179,12.93238 -0.17791,15.08005 52.94553,16.78638 45.42738,1.45915 50.76194,2.23987 55.18283,8.07643 7.42646,9.80459 6.31451,25.19785 -2.40968,33.35773 -7.09125,6.63259 -10.52904,7.02425 -61.65188,7.02425 -51.97866,0 -54.14186,-0.2582 -54.14186,-6.46113 z m 175.22117,-37.15143 c 0,-41.45882 0.32076,-43.61255 6.48966,-43.61255 6.16921,0 6.48971,2.15373 6.48971,43.61255 0,41.45884 -0.32077,43.61256 -6.48971,43.61256 -6.16917,0 -6.48966,-2.15372 -6.48966,-43.61256 z m 71.38642,37.15143 c 0,-6.18981 2.16324,-6.4611 51.5201,-6.4611 43.04894,0 52.22139,-0.84132 55.7853,-5.11664 3.09238,-3.70976 3.32883,-6.59671 0.85988,-10.49933 -2.87733,-4.54814 -10.71258,-5.52093 -50.53548,-6.2745 -44.77581,-0.84729 -47.55443,-1.28333 -55.62476,-8.72977 -4.73819,-4.37187 -8.49471,-11.36089 -8.49471,-15.8044 0,-24.10487 9.86018,-27.87824 72.8477,-27.87824 h 50.45612 v 8.07638 8.07642 h -51.80323 c -46.60493,0 -52.11757,0.58476 -54.93582,5.82752 -6.95179,12.93238 -0.1779,15.08005 52.94557,16.78638 45.42734,1.45915 50.76194,2.23987 55.18279,8.07643 6.98554,9.22242 6.26795,24.99374 -1.51571,33.31171 -6.30376,6.73653 -9.21405,7.07027 -61.65193,7.07027 -52.87258,0 -55.03582,-0.25399 -55.03582,-6.46113 z M 44.268199,632.52102 c -41.3309805,-13.70013 -72.65684,-45.99277 -84.10454,-86.70003 -2.43878,-8.67204 -3.72383,-25.66953 -3.04936,-40.33436 5.0178,-109.10368 141.82528,-157.65979 216.613491,-76.88108 20.60889,22.2596 30.73078,46.41798 32.24101,76.9512 3.01153,60.88509 -30.49296,108.94819 -88.69179,127.23086 -15.90745,4.99721 -57.588101,4.845 -73.008811,-0.26662 z m 88.074131,-16.05059 c 26.64634,-12.69604 50.49215,-40.61571 59.54902,-69.72246 2.31863,-7.45156 1.66272,-7.27304 -13.37422,3.6401 -18.56825,13.47605 -44.22889,26.71084 -69.27929,35.7316 -13.113801,4.72237 -30.102412,6.99042 -63.347221,8.45715 l -45.42772048,2.00423 15.88766048,10.9797 c 22.82248,15.7722 38.01903,19.81333 70.10054,18.6414 21.891631,-0.79971 31.358091,-2.80716 45.891231,-9.73172 z M 85.043919,581.79279 c 24.542721,-4.43766 72.667171,-27.07352 94.696211,-44.54141 16.30911,-12.93224 17.03538,-14.17071 17.03538,-29.04741 0,-8.54658 -0.92742,-16.46262 -2.06096,-17.59117 -1.13358,-1.12855 -12.32014,7.40464 -24.85909,18.96267 -27.3487,25.20933 -70.432501,47.54472 -105.519191,54.70304 -13.05544,2.66352 -37.58158,4.84279 -54.5024905,4.84279 H -20.931521 l 5.82993,7.9749 c 5.6096795,7.67355 7.2480695,7.97868 43.36086,8.07638 20.64201,0.0558 46.19508,-1.46506 56.78465,-3.37979 z m -16.79471,-28.73383 c 33.051711,-8.41602 64.565451,-25.28888 94.113021,-50.38931 13.2656,-11.26904 25.13985,-22.13314 26.38714,-24.14249 1.24734,-2.00934 -0.28457,-9.289 -3.40449,-16.17703 l -5.67234,-12.52372 -26.76147,24.91892 c -47.15886,43.9121 -92.012161,64.10027 -151.2116215,68.05939 -30.6613795,2.0506 -31.1638795,2.21558 -28.4968795,9.35612 2.57609,6.89706 4.43602,7.26875 36.3712095,7.26875 22.8756505,0 41.6703305,-2.0406 58.6754305,-6.37063 z m -34.53851,-24.58665 c 43.31451,-8.90748 72.561541,-25.04044 116.041101,-64.00927 l 24.85784,-22.279 -9.98882,-9.9449 -9.98878,-9.94486 -18.67753,18.06038 c -27.24126,26.34114 -49.903181,42.96624 -74.053251,54.32636 -22.7576,10.70513 -67.5639605,22.69133 -84.96346,22.72866 -9.07946,0.0191 -10.54572,1.14558 -10.54572,8.09907 0,7.79182 0.74802,8.07637 21.22824,8.07637 11.67553952,0 32.41625,-2.30076 46.09038,-5.11281 z m -0.87739,-32.94912 c 31.21237,-10.25647 64.18767,-31.68233 91.969921,-59.75798 l 20.50559,-20.72209 -17.26076,-7.68166 c -13.97276,-6.21838 -22.83287,-7.69719 -46.512861,-7.76309 -26.60471,-0.0742 -31.2177,0.88103 -50.96997,10.55353 -33.1011905,16.20931 -58.7106,50.69897 -63.37979,85.35714 l -1.77517,13.1768 20.77114,-2.32912 c 11.4241495,-1.28099 32.4175,-6.15611 46.6519,-10.83353 z"
         style="fill:#000000;stroke-width:3.23769045" />
    </g>
  </g>
</svg>
