<?xml version="1.0" encoding="UTF-8" standalone="no"?>
<!-- Created with Inkscape (http://www.inkscape.org/) -->

<svg
   xmlns:dc="http://purl.org/dc/elements/1.1/"
   xmlns:cc="http://creativecommons.org/ns#"
   xmlns:rdf="http://www.w3.org/1999/02/22-rdf-syntax-ns#"
   xmlns:svg="http://www.w3.org/2000/svg"
   xmlns="http://www.w3.org/2000/svg"
   xmlns:sodipodi="http://sodipodi.sourceforge.net/DTD/sodipodi-0.dtd"
   xmlns:inkscape="http://www.inkscape.org/namespaces/inkscape"
   version="1.1"
   id="svg224"
   width="317"
   height="355"
   viewBox="0 0 317 355"
   sodipodi:docname="oasis-logo-orange.svg"
   inkscape:version="0.92.5 (2060ec1f9f, 2020-04-08)"
   inkscape:export-filename="/home/camile/Documents/Personnal Projects/oasis App/Oasis/src/images/welcome_page/oasis-logo-orange.png"
   inkscape:export-xdpi="96"
   inkscape:export-ydpi="96">
  <metadata
     id="metadata230">
    <rdf:RDF>
      <cc:Work
         rdf:about="">
        <dc:format>image/svg+xml</dc:format>
        <dc:type
           rdf:resource="http://purl.org/dc/dcmitype/StillImage" />
        <dc:title />
      </cc:Work>
    </rdf:RDF>
  </metadata>
  <defs
     id="defs228" />
  <sodipodi:namedview
     pagecolor="#ffffff"
     bordercolor="#666666"
     borderopacity="1"
     objecttolerance="10"
     gridtolerance="10"
     guidetolerance="10"
     inkscape:pageopacity="0"
     inkscape:pageshadow="2"
     inkscape:window-width="1366"
     inkscape:window-height="654"
     id="namedview226"
     showgrid="false"
     inkscape:zoom="1.65"
     inkscape:cx="-19.438091"
     inkscape:cy="177.5"
     inkscape:window-x="0"
     inkscape:window-y="27"
     inkscape:window-maximized="1"
     inkscape:current-layer="svg224" />
  <path
     style="fill:#d05712;stroke-width:0.66189671;fill-opacity:1"
     d="m 86.848656,165.62192 c -1.995638,-1.81952 -3.094267,-5.58619 -2.619029,-8.9794 0.869568,-6.20872 3.051525,-7.42187 13.348833,-7.42187 11.31448,0 13.16837,1.29443 13.16837,9.19441 0,4.2741 -0.16078,4.8143 -1.95577,6.57095 l -1.95577,1.91401 h -9.292407 c -8.291283,0 -9.443438,-0.13769 -10.694227,-1.2781 z m 18.848604,-2.10096 c 1.33097,-0.59348 1.70418,-1.23877 1.70418,-2.94656 v -2.18667 H 97.365252 c -10.823589,0 -10.773468,-0.0187 -9.4051,3.50356 0.347096,0.89343 1.175082,1.76241 1.839967,1.93104 2.560651,0.64946 14.262241,0.42763 15.897141,-0.30137 z m 1.70418,-7.62143 c 0,-3.08705 -0.91465,-3.40492 -9.797524,-3.40492 -7.706624,0 -8.253413,0.0862 -9.233291,1.45528 -0.572856,0.8004 -1.041557,1.97902 -1.041557,2.61917 0,1.06359 0.864828,1.16388 10.036184,1.16388 h 10.036188 z m 11.37434,9.79548 c 0,-1.93469 10.28278,-16.11682 11.85124,-16.34538 1.07507,-0.15667 2.6467,1.59773 7.4677,8.33608 3.35833,4.69398 6.10606,8.68746 6.10606,8.87441 0,0.18694 -0.82798,0.33377 -1.83997,0.32628 -1.52227,-0.0113 -2.34099,-0.75986 -4.74174,-4.33557 l -2.90177,-4.32194 -3.11994,4.32151 -3.11993,4.32151 -4.85083,0.0141 c -4.26966,0.0124 -4.85082,-0.13033 -4.85082,-1.19097 z m 10.70085,-5.66368 c 2.60464,-3.91236 3.11908,-6.22714 1.38396,-6.22714 -0.60994,0 -7.40126,9.28573 -7.40126,10.1197 0,0.19633 0.71735,0.35697 1.59411,0.35697 1.22506,0 2.24907,-0.98381 4.42319,-4.24953 z m 24.09126,5.55911 c 0,-1.253 0.44605,-1.30958 10.32293,-1.30958 8.49238,0 10.50938,-0.18247 11.37434,-1.02896 0.57828,-0.56593 1.05141,-1.13419 1.05141,-1.26281 0,-0.12862 -0.47313,-0.69689 -1.05141,-1.26281 -0.8555,-0.83724 -2.79349,-1.02896 -10.40113,-1.02896 -9.03477,0 -9.40505,-0.0541 -10.99201,-1.60722 -2.30234,-2.25317 -2.24714,-5.68961 0.12064,-7.51234 1.62039,-1.24738 2.64823,-1.35711 12.7125,-1.35711 h 10.94957 v 1.62076 1.62076 l -10.87253,0.17992 -10.87254,0.17992 v 1.63697 1.63698 l 9.70165,0.3274 c 9.74176,0.32875 12.14463,0.88126 12.96832,2.98193 0.80371,2.04969 0.39633,4.64642 -0.95097,6.06168 -1.29982,1.36541 -1.89991,1.43305 -12.7125,1.43305 -10.90222,0 -11.34827,-0.0515 -11.34827,-1.30958 z m 36.13026,-7.5301 c 0,-8.40316 0.0661,-8.83969 1.33816,-8.83969 1.27207,0 1.33816,0.43653 1.33816,8.83969 0,8.40315 -0.0661,8.83968 -1.33816,8.83968 -1.27207,0 -1.33816,-0.43653 -1.33816,-8.83968 z m 14.71974,7.5301 c 0,-1.2549 0.44606,-1.30958 10.68173,-1.30958 9.86886,0 10.73433,-0.0962 11.37301,-1.26411 0.52182,-0.95421 0.43386,-1.51605 -0.35879,-2.29177 -0.85386,-0.83563 -2.79718,-1.02766 -10.39981,-1.02766 -9.03477,0 -9.40505,-0.0541 -10.99201,-1.60722 -1.03523,-1.01311 -1.64229,-2.35534 -1.64229,-3.63112 0,-1.27577 0.60706,-2.618 1.64229,-3.63111 1.61131,-1.57691 1.85104,-1.60722 12.7125,-1.60722 h 11.07021 v 1.62076 1.62076 l -10.87253,0.17992 -10.87253,0.17992 v 1.63697 1.63698 l 10.03618,0.3274 c 5.5199,0.18007 10.44228,0.58376 10.93861,0.8971 0.49633,0.31333 1.28977,1.47128 1.76321,2.57322 1.01719,2.3675 0.22219,5.36469 -1.6884,6.36537 -0.67309,0.35254 -6.2115,0.64097 -12.30759,0.64097 -10.63773,0 -11.08379,-0.0527 -11.08379,-1.30958 z M 38.300595,180.0563 c -4.82275,-0.60871 -7.96296,-1.90008 -12.06519,-4.96168 -6.52124,-4.86696 -9.97024,-11.85513 -9.93601,-20.13176 0.0421,-10.17767 5.36676,-18.41725 14.75711,-22.83573 3.97799,-1.87178 4.91981,-2.04635 11.0398,-2.04635 6.10581,0 7.07103,0.17784 11.03981,2.0341 7.81044,3.65307 13.49726,11.06421 14.5586,18.97298 1.15968,8.64162 -1.20527,15.79732 -7.18625,21.74364 -5.79303,5.75945 -13.62652,8.3079 -22.20787,7.2248 z m 14.40902,-4.37435 c 5.72448,-2.75797 10.26814,-7.89998 12.09833,-13.69154 0.40712,-1.28831 -0.10495,-1.09195 -3.87055,1.48418 -8.25087,5.6446 -15.15463,7.82926 -27.01957,8.55019 l -7.50939,0.45628 1.72369,1.3269 c 0.94803,0.7298 3.424,2.02913 5.50216,2.8874 3.17633,1.31181 4.64794,1.52373 9.23449,1.32981 4.50325,-0.1904 6.22174,-0.59959 9.84084,-2.34322 z m -9.29435,-6.97596 c 5.84687,-1.21208 12.82876,-4.45062 18.2516,-8.46598 4.09833,-3.03462 4.18175,-3.15842 4.18175,-6.20571 0,-1.71013 -0.19513,-3.30029 -0.43363,-3.53369 -0.23849,-0.2334 -2.44353,1.43118 -4.90007,3.69908 -4.81517,4.44539 -7.94127,6.37572 -14.73867,9.10097 -5.33585,2.13927 -9.11849,2.89067 -17.58278,3.49269 -6.32493,0.44986 -6.50541,0.50597 -5.4162,1.68384 0.97109,1.05013 2.1524,1.2169 8.55021,1.20711 4.08289,-0.007 9.5224,-0.4465 12.08779,-0.97831 z m -1.05524,-6.46617 c 6.13339,-2.10439 9.8625,-4.18604 15.49209,-8.64794 6.92043,-5.48499 6.92208,-5.48756 5.59781,-8.72653 l -1.11658,-2.73105 -4.76589,4.4924 c -10.594276,9.98633 -21.08492,14.51568 -33.68921,14.54531 l -4.83647,0.0114 0.8002,1.71875 0.8002,1.71874 8.38529,-0.3418 c 6.68125,-0.27235 9.39067,-0.68676 13.33256,-2.03924 z m -5.60165,-5.2529 c 6.36997,-1.96934 13.303242,-6.28648 19.4224,-12.09375 l 4.40087,-4.17657 -1.81203,-1.85096 -1.81203,-1.85096 -5.51225,5.04534 c -3.03174,2.77493 -7.42933,6.15784 -9.77242,7.51756 -5.13811,2.98171 -12.98115,5.51079 -18.94371,6.10863 -4.11834,0.41293 -4.3852,0.53982 -4.3852,2.08515 v 1.64547 l 6.53822,-0.38982 c 4.14241,-0.24698 8.49422,-0.99454 11.87615,-2.04009 z m -7.67293,-4.61601 c 8.48823,-2.40304 15.55177,-6.59315 22.01364,-13.05853 3.50306,-3.50497 3.59742,-3.69016 2.34178,-4.59571 -1.82532,-1.31639 -8.23719,-3.00045 -11.38845,-2.99114 -7.23197,0.0214 -14.79991,3.86954 -19.06011,9.69181 -2.52564,3.45169 -4.6483,8.67948 -4.6483,11.44804 0,1.15697 0.33183,1.22746 3.8472,0.81717 2.11596,-0.24696 5.21837,-0.8372 6.89424,-1.31164 z"
     id="path234"
     inkscape:connector-curvature="0"
     sodipodi:nodetypes="csssccsccscscccsscsscssccscsccccsscssscsscscsccscccccccsccsssssssssccscscscccccccscccsssssssssssssssccssscsscccsccccsccsccccccccscccscsscsccscscssc" />
</svg>
